<svg width="21" height="21" viewBox="0 0 21 21" fill="none" xmlns="http://www.w3.org/2000/svg">
<path d="M0.00660515 8.1725V8.25157C-0.0149574 6.09524 0.826012 3.97484 2.40014 2.40072C3.95988 0.84097 6.04434 0 8.17911 0H12.8152C14.95 0 17.0273 0.84097 18.587 2.39353C20.1539 3.96765 20.9877 6.08086 20.9669 8.24438V8.16532V12.8014V12.7224C20.9884 14.8787 20.1475 16.9991 18.5734 18.5732C16.9992 20.1473 14.886 20.9811 12.7225 20.9667H12.8016H8.16545H8.24452C6.08818 20.9883 3.96779 20.1473 2.39367 18.5732C0.819544 16.9991 -0.0142403 14.8859 0.000135422 12.7224V12.8014L0.00732422 8.1725H0.00660515ZM0.25099 10.142C0.229427 10.0557 0.207863 9.97664 0.193487 9.89038C0.207863 9.97664 0.229427 10.0629 0.25099 10.142C0.272552 10.2282 0.28693 10.3073 0.294117 10.4007C0.272554 10.3145 0.265366 10.2282 0.25099 10.142ZM0.00660515 8.35939C0.00660515 8.4097 0.00660515 8.45283 0.013792 8.49595C0.013792 8.45283 0.0137939 8.4097 0.00660515 8.35939ZM0.013792 8.61815C0.013792 8.66846 0.0209808 8.71159 0.0209808 8.75471C0.0209808 8.71159 0.013792 8.66127 0.013792 8.61815ZM0.0281677 8.86972C0.0353565 8.91284 0.0353565 8.96316 0.0425453 8.9991C0.0425453 8.96316 0.0353565 8.92003 0.0281677 8.86972ZM0.135984 9.63881C0.143173 9.68194 0.15036 9.73225 0.164736 9.76819C0.157549 9.73225 0.143173 9.68194 0.135984 9.63881ZM15.5969 4.85175C15.1944 3.94609 14.6337 3.13387 13.9221 2.42228C13.0812 1.58131 12.0677 0.934411 10.9608 0.531896C10.6589 0.416891 10.3283 0.416891 10.0192 0.531896C8.91226 0.934411 7.8916 1.58131 7.05781 2.42228C6.34622 3.13387 5.78558 3.94609 5.38306 4.85175C5.32556 4.97394 5.44775 5.09613 5.56994 5.05301C7.03625 4.56424 8.63912 4.49236 10.1486 4.87331C10.3714 4.93082 10.6014 4.93082 10.8242 4.87331C12.3336 4.49955 13.9365 4.56424 15.4028 5.05301C15.5322 5.10332 15.6544 4.98113 15.5969 4.85175ZM20.693 10.4007C20.7002 10.3145 20.7146 10.2282 20.7362 10.142C20.7577 10.0557 20.7793 9.97664 20.7937 9.89038C20.7721 9.97664 20.7577 10.0557 20.7362 10.142C20.7074 10.2282 20.7002 10.3145 20.693 10.4007ZM20.959 8.50314C20.959 8.45283 20.9662 8.4097 20.9662 8.36657C20.959 8.4097 20.959 8.45283 20.959 8.50314ZM20.8583 9.50943C20.8655 9.4663 20.8727 9.42318 20.8799 9.38005C20.8727 9.43036 20.8655 9.47349 20.8583 9.50943ZM20.9302 9.00629C20.9374 8.96316 20.9374 8.91284 20.9446 8.87691C20.9374 8.92003 20.9302 8.96316 20.9302 9.00629ZM20.9518 8.75471C20.9518 8.7044 20.959 8.66127 20.959 8.61815C20.959 8.66127 20.9518 8.71159 20.9518 8.75471ZM20.7218 10.832C20.7433 10.9182 20.7649 10.9973 20.7793 11.0836C20.7649 10.9973 20.7433 10.911 20.7218 10.832C20.7002 10.7457 20.6858 10.6667 20.6787 10.5732C20.7002 10.6595 20.7074 10.7457 20.7218 10.832ZM20.9669 12.6145C20.9669 12.5642 20.9669 12.5211 20.9597 12.478C20.9597 12.5211 20.9597 12.5642 20.9669 12.6145ZM20.959 12.3558C20.959 12.3055 20.9518 12.2623 20.9518 12.2192C20.9518 12.2623 20.959 12.3127 20.959 12.3558ZM20.9446 12.1042C20.9374 12.0611 20.9374 12.0108 20.9302 11.9748C20.9302 12.0108 20.9374 12.0539 20.9446 12.1042ZM20.8799 11.5867C20.8727 11.5436 20.8655 11.5004 20.8583 11.4573C20.8655 11.5076 20.8727 11.5436 20.8799 11.5867ZM20.8368 11.3351C20.8296 11.292 20.8224 11.2417 20.808 11.2057C20.8152 11.2417 20.8296 11.292 20.8368 11.3351ZM16.1 10.142C16.0425 10.3648 16.0425 10.5948 16.1 10.8176C16.4738 12.327 16.4091 13.9299 15.9203 15.3962C15.8772 15.5256 16.0066 15.6406 16.1216 15.5831C17.0273 15.1806 17.8395 14.6199 18.5511 13.9083C19.392 13.0674 20.0389 12.0539 20.4415 10.947C20.5565 10.6451 20.5565 10.3145 20.4415 10.0054C20.0389 8.89847 19.392 7.8778 18.5511 7.04402C17.8395 6.33243 17.0273 5.77179 16.1216 5.36927C15.9994 5.31177 15.8772 5.43396 15.9203 5.55615C16.4091 7.04402 16.4666 8.63252 16.1 10.142ZM10.8314 20.7224C10.9177 20.7439 10.9967 20.7655 11.083 20.7799C10.9967 20.7655 10.9105 20.7439 10.8314 20.7224C10.7451 20.7008 10.6661 20.6864 10.5726 20.6792C10.6589 20.7008 10.7451 20.708 10.8314 20.7224ZM12.614 20.9667C12.5637 20.9667 12.5205 20.9667 12.4774 20.9596C12.5205 20.9596 12.5637 20.9596 12.614 20.9667ZM12.3552 20.9596C12.3049 20.9596 12.2618 20.9524 12.2186 20.9524C12.2618 20.9524 12.3121 20.9596 12.3552 20.9596ZM12.1036 20.9452C12.0605 20.938 12.0102 20.938 11.9743 20.9308C12.0102 20.9308 12.0533 20.938 12.1036 20.9452ZM11.3345 20.8374C11.2914 20.8302 11.2411 20.823 11.2052 20.8086C11.2411 20.8158 11.2914 20.8302 11.3345 20.8374ZM10.4001 20.6936C10.3139 20.7008 10.2276 20.7152 10.1414 20.7367C10.0551 20.7583 9.97605 20.7799 9.8898 20.7942C9.97605 20.7727 10.0551 20.7583 10.1414 20.7367C10.2276 20.708 10.3139 20.7008 10.4001 20.6936ZM8.50256 20.9596C8.45224 20.9596 8.40912 20.9667 8.36599 20.9667C8.40912 20.9596 8.45224 20.9596 8.50256 20.9596ZM9.50884 20.8589C9.46572 20.8661 9.42259 20.8733 9.37947 20.8805C9.42978 20.8733 9.47291 20.8661 9.50884 20.8589ZM9.0057 20.9308C8.96257 20.938 8.91226 20.938 8.87632 20.9452C8.91945 20.938 8.96257 20.9308 9.0057 20.9308ZM8.75413 20.9524C8.70381 20.9524 8.66069 20.9596 8.61756 20.9596C8.66069 20.9596 8.711 20.9524 8.75413 20.9524ZM5.37587 16.1222C5.77839 17.0278 6.33904 17.8401 7.05063 18.5517C7.89159 19.3926 8.90507 20.0395 10.012 20.442C10.3139 20.557 10.6445 20.557 10.9536 20.442C12.0605 20.0395 13.0812 19.3926 13.915 18.5517C14.6265 17.8401 15.1872 17.0207 15.5897 16.1222C15.6472 16 15.525 15.8778 15.4028 15.9209C13.9365 16.4169 12.3336 16.4816 10.8242 16.1006C10.6014 16.0431 10.3714 16.0431 10.1486 16.1006C8.63912 16.4816 7.03625 16.4097 5.56994 15.9209C5.44056 15.8706 5.31837 15.9928 5.37587 16.1222ZM5.16024 10.9542C5.56276 12.0611 6.20966 13.0818 7.05063 13.9155C7.89159 14.7565 8.90507 15.4034 10.012 15.8059C10.3139 15.9209 10.6445 15.9209 10.9536 15.8059C12.0605 15.4034 13.0812 14.7565 13.915 13.9155C14.7559 13.0818 15.41 12.0683 15.8053 10.9542C15.9203 10.6523 15.9203 10.3216 15.8053 10.0126C15.4028 8.90566 14.7559 7.88499 13.915 7.05121C13.074 6.21743 12.0605 5.56334 10.9536 5.16082C10.6517 5.04582 10.3211 5.04582 10.012 5.16082C8.90507 5.56334 7.88441 6.21024 7.05063 7.05121C6.20966 7.89218 5.56276 8.90566 5.16024 10.0126C5.05961 10.3216 5.05961 10.6523 5.16024 10.9542ZM0.531313 10.9542C0.933828 12.0611 1.58073 13.0818 2.4217 13.9155C3.13329 14.6271 3.94551 15.1878 4.85117 15.5903C4.97336 15.6478 5.09555 15.5256 5.05242 15.4034C4.56365 13.9371 4.49178 12.3342 4.87273 10.8248C4.93023 10.602 4.93023 10.372 4.87273 10.1491C4.49896 8.63971 4.56365 7.03683 5.05242 5.57053C5.09555 5.44115 4.96617 5.32614 4.85117 5.38365C3.94551 5.78616 3.13329 6.34681 2.4217 7.0584C1.58073 7.89937 0.933828 8.91284 0.531313 10.0198C0.423496 10.3216 0.423496 10.6523 0.531313 10.9542ZM0.279741 10.5732C0.272552 10.6595 0.258177 10.7457 0.236614 10.832C0.21505 10.9182 0.193487 10.9973 0.179111 11.0836C0.200676 10.9973 0.21505 10.9182 0.236614 10.832C0.265366 10.7457 0.272552 10.6595 0.279741 10.5732ZM0.013792 12.4708C0.013792 12.5211 0.00660515 12.5642 0.00660515 12.6074C0.0137939 12.5642 0.013792 12.5211 0.013792 12.4708ZM0.114422 11.4645C0.107235 11.5076 0.100046 11.5508 0.0928574 11.5939C0.100046 11.5436 0.107235 11.5076 0.114422 11.4645ZM0.0425453 11.9677C0.0353565 12.0108 0.0353565 12.0611 0.0281677 12.097C0.0353565 12.0539 0.0425453 12.0108 0.0425453 11.9677ZM0.0209808 12.2192C0.0209808 12.2695 0.013792 12.3127 0.013792 12.3558C0.013792 12.3127 0.0209808 12.2623 0.0209808 12.2192Z" fill="#619111"/>
</svg>
