<svg width="16" height="16" viewBox="0 0 16 16" fill="none" xmlns="http://www.w3.org/2000/svg">
<path d="M13.0629 2.24122C16.051 5.22955 16.0504 10.0743 13.0622 13.0626C10.0739 16.0506 5.22978 16.0506 2.24152 13.0626C-0.746724 10.0743 -0.74728 5.22955 2.24083 2.24122C5.22915 -0.74709 10.0746 -0.74709 13.0629 2.24122ZM8.89094 2.81463C8.20661 2.13031 7.0971 2.13031 6.41277 2.81463L2.81562 6.41178C2.13129 7.09611 2.13129 8.20562 2.81562 8.88995L6.41277 12.4871C7.0971 13.1714 8.20661 13.1714 8.89094 12.4871L12.4881 8.88995C13.1724 8.20562 13.1724 7.09611 12.4881 6.41178L8.89094 2.81463Z" fill="#619111"/>
</svg>
