<svg width="20" height="30" viewBox="0 0 20 30" fill="none" xmlns="http://www.w3.org/2000/svg">
<path d="M19.0281 11.91C18.7581 11.41 18.2281 11.09 17.6781 11.09H11.7481L13.5381 1.76C13.5881 1.32 13.5181 0.93 13.3281 0.63C13.1681 0.37 12.9281 0.18 12.6281 0.08C12.4581 0.03 12.2881 0 12.1181 0C11.6581 0 11.2081 0.19 10.9281 0.52L0.278059 14.52C-0.0519415 14.96 -0.0919415 15.54 0.178059 16.07C0.448059 16.57 0.978059 16.89 1.52806 16.89L7.44806 16.94L5.65806 27.5C5.51806 28.34 6.02806 28.87 6.54806 29.08C7.04806 29.29 7.80806 29.28 8.30806 28.61L18.9081 13.48C19.2481 13.03 19.2881 12.44 19.0281 11.91ZM17.9481 12.81L7.56806 27.75C7.48806 27.88 7.34806 27.95 7.20806 27.95C7.14806 27.95 7.08806 27.94 7.02806 27.91C6.82806 27.83 6.71806 27.63 6.75806 27.42L8.76806 15.8L1.52806 15.76C1.37806 15.76 1.23806 15.67 1.16806 15.53C1.09806 15.4 1.11806 15.23 1.20806 15.11L11.5881 1.29C11.7181 1.12 11.9381 1.06 12.1281 1.15C12.3281 1.23 12.4281 1.43 12.3881 1.64L10.3881 12.13L17.6181 12.18C17.7781 12.18 17.9081 12.26 17.9781 12.39C18.0481 12.53 18.0381 12.69 17.9481 12.81Z" fill="black"/>
</svg>
